<svg width="24" height="24" viewBox="0 0 24 24" fill="none" xmlns="http://www.w3.org/2000/svg">
<path d="M23.8631 3.82857C23.6342 2.8 23.3481 2.17143 22.6041 1.42857C21.8602 0.685714 21.2307 0.4 20.2007 0.171429C19.5712 0.0571428 18.5983 0 17.5683 0C17.5111 0 17.1105 0 16.996 0H6.98153C6.9243 0 6.52373 0 6.40927 0C5.43644 0 4.40638 0.0571428 3.83412 0.171429C2.86128 0.4 2.2318 0.685714 1.43064 1.42857C0.686708 2.22857 0.40058 2.85714 0.171677 3.82857C0.0572256 4.45714 0 5.42857 0 6.45714C0 6.51429 0 6.91429 0 7.02857V17.0286C0 17.0857 0 17.4857 0 17.6C0 18.5714 0.0572256 19.6 0.171677 20.1714C0.40058 21.2 0.686708 21.8286 1.43064 22.5714C2.17457 23.3143 2.80406 23.6 3.83412 23.8286C4.4636 23.9429 5.43644 24 6.40927 24C6.4665 24 6.86708 24 6.98153 24H16.996C17.0532 24 17.4538 24 17.5683 24C18.5411 24 19.5712 23.9429 20.1434 23.8286C21.1735 23.6 21.803 23.3143 22.5469 22.5714C23.2908 21.8286 23.577 21.2 23.8059 20.1714C23.9203 19.5429 23.9776 18.5714 23.9776 17.6C23.9776 17.5429 23.9776 17.1429 23.9776 17.0286V6.97143C23.9776 6.91429 23.9776 6.51429 23.9776 6.4C24.0348 5.42857 23.9776 4.45714 23.8631 3.82857ZM19.6856 8.4L11.0446 17.0286C10.9301 17.1429 10.7584 17.1429 10.644 17.0286L4.6925 11.0857C4.57805 10.9714 4.57805 10.8 4.6925 10.6857L5.72257 9.71429C5.83702 9.6 6.00869 9.6 6.12315 9.71429L10.8729 14.4571L18.3122 7.02857C18.4267 6.91429 18.5983 6.91429 18.7128 7.02857L19.7429 8.05714C19.8001 8.05714 19.8001 8.28572 19.6856 8.4Z" fill="#222B50"/>
</svg>
