<svg width="12" height="12" viewBox="0 0 12 12" fill="none" xmlns="http://www.w3.org/2000/svg">
<path d="M10.875 3.25H5.9C5.65 2.525 4.95 2 4.125 2C3.3 2 2.625 2.525 2.35 3.25H1.125C1.05 3.25 1 3.3 1 3.375V4.375C1 4.45 1.05 4.5 1.125 4.5H2.35C2.6 5.225 3.3 5.75 4.125 5.75C4.95 5.75 5.625 5.225 5.9 4.5H10.875C10.95 4.5 11 4.45 11 4.375V3.375C11 3.3 10.95 3.25 10.875 3.25ZM4.125 4.5C3.775 4.5 3.5 4.225 3.5 3.875C3.5 3.525 3.775 3.25 4.125 3.25C4.475 3.25 4.75 3.525 4.75 3.875C4.75 4.225 4.475 4.5 4.125 4.5Z" fill="black"/>
<path d="M1.125 8.75H6.1C6.35 9.475 7.05 10 7.875 10C8.7 10 9.375 9.475 9.65 8.75H10.875C10.95 8.75 11 8.7 11 8.625V7.625C11 7.55 10.95 7.5 10.875 7.5H9.65C9.4 6.775 8.7 6.25 7.875 6.25C7.05 6.25 6.375 6.775 6.1 7.5H1.125C1.05 7.5 1 7.55 1 7.625V8.625C1 8.7 1.05 8.75 1.125 8.75ZM7.875 7.5C8.225 7.5 8.5 7.775 8.5 8.125C8.5 8.475 8.225 8.75 7.875 8.75C7.525 8.75 7.25 8.475 7.25 8.125C7.25 7.775 7.525 7.5 7.875 7.5Z" fill="black"/>
</svg>
